<?xml version="1.0" encoding="UTF-8"?><svg xmlns="http://www.w3.org/2000/svg" xmlns:xlink="http://www.w3.org/1999/xlink" fill-opacity="1" color-rendering="auto" color-interpolation="auto" text-rendering="auto" stroke="black" stroke-linecap="square" width="716" stroke-miterlimit="10" shape-rendering="auto" stroke-opacity="1" fill="black" stroke-dasharray="none" font-weight="normal" stroke-width="1" height="134" font-family="'Dialog'" font-style="normal" stroke-linejoin="miter" font-size="12px" stroke-dashoffset="0" image-rendering="auto">
  <!--Generated by ySVG 2.5-->
  <defs id="genericDefs"/>
  <g>
    <defs id="defs1">
      <clipPath clipPathUnits="userSpaceOnUse" id="clipPath1">
        <path d="M0 0 L716 0 L716 134 L0 134 L0 0 Z"/>
      </clipPath>
      <clipPath clipPathUnits="userSpaceOnUse" id="clipPath2">
        <path d="M85 88 L801 88 L801 222 L85 222 L85 88 Z"/>
      </clipPath>
    </defs>
    <g fill="white" text-rendering="geometricPrecision" shape-rendering="geometricPrecision" transform="translate(-85,-88)" stroke="white">
      <rect x="85" width="716" height="134" y="88" clip-path="url(#clipPath2)" stroke="none"/>
    </g>
    <g fill="rgb(0,204,255)" text-rendering="geometricPrecision" shape-rendering="geometricPrecision" transform="matrix(1,0,0,1,-85,-88)" stroke="rgb(0,204,255)">
      <rect x="449" width="336.8" height="103.24" y="103.56" clip-path="url(#clipPath2)" stroke="none"/>
    </g>
    <g text-rendering="geometricPrecision" stroke-miterlimit="1.45" shape-rendering="geometricPrecision" font-family="sans-serif" transform="matrix(1,0,0,1,-85,-88)" stroke-linecap="butt">
      <text x="605.4703" xml:space="preserve" y="120.6987" clip-path="url(#clipPath2)" stroke="none">CyC</text>
      <rect fill="none" x="449" width="336.8" height="103.24" y="103.56" clip-path="url(#clipPath2)"/>
    </g>
    <g fill="rgb(0,204,255)" text-rendering="geometricPrecision" shape-rendering="geometricPrecision" transform="matrix(1,0,0,1,-85,-88)" stroke="rgb(0,204,255)">
      <rect x="100.2" width="80" height="37" y="135.4" clip-path="url(#clipPath2)" stroke="none"/>
    </g>
    <g text-rendering="geometricPrecision" stroke-miterlimit="1.45" shape-rendering="geometricPrecision" font-family="sans-serif" transform="matrix(1,0,0,1,-85,-88)" stroke-linecap="butt">
      <text x="125.8738" xml:space="preserve" y="158.0543" clip-path="url(#clipPath2)" stroke="none">Data</text>
      <rect fill="none" x="100.2" width="80" height="37" y="135.4" clip-path="url(#clipPath2)"/>
    </g>
    <g fill="rgb(0,204,255)" text-rendering="geometricPrecision" shape-rendering="geometricPrecision" transform="matrix(1,0,0,1,-85,-88)" stroke="rgb(0,204,255)">
      <rect x="236.44" width="80" height="37" y="135.4" clip-path="url(#clipPath2)" stroke="none"/>
    </g>
    <g text-rendering="geometricPrecision" stroke-miterlimit="1.45" shape-rendering="geometricPrecision" font-family="sans-serif" transform="matrix(1,0,0,1,-85,-88)" stroke-linecap="butt">
      <text x="264.7183" xml:space="preserve" y="158.0543" clip-path="url(#clipPath2)" stroke="none">SAS</text>
      <rect fill="none" x="236.44" width="80" height="37" y="135.4" clip-path="url(#clipPath2)"/>
    </g>
    <g fill="rgb(0,204,255)" text-rendering="geometricPrecision" shape-rendering="geometricPrecision" transform="matrix(1,0,0,1,-85,-88)" stroke="rgb(0,204,255)">
      <rect x="485.08" width="80" height="37" y="135.4" clip-path="url(#clipPath2)" stroke="none"/>
    </g>
    <g text-rendering="geometricPrecision" stroke-miterlimit="1.45" shape-rendering="geometricPrecision" font-family="sans-serif" transform="matrix(1,0,0,1,-85,-88)" stroke-linecap="butt">
      <text x="508.3837" xml:space="preserve" y="158.0543" clip-path="url(#clipPath2)" stroke="none">HTML</text>
      <rect fill="none" x="485.08" width="80" height="37" y="135.4" clip-path="url(#clipPath2)"/>
    </g>
    <g fill="rgb(0,204,255)" text-rendering="geometricPrecision" shape-rendering="geometricPrecision" transform="matrix(1,0,0,1,-85,-88)" stroke="rgb(0,204,255)">
      <rect x="666.6" width="80" height="37" y="135.4" clip-path="url(#clipPath2)" stroke="none"/>
    </g>
    <g text-rendering="geometricPrecision" stroke-miterlimit="1.45" shape-rendering="geometricPrecision" font-family="sans-serif" transform="matrix(1,0,0,1,-85,-88)" stroke-linecap="butt">
      <text x="694.9105" xml:space="preserve" y="158.0543" clip-path="url(#clipPath2)" stroke="none">PDF</text>
      <rect fill="none" x="666.6" width="80" height="37" y="135.4" clip-path="url(#clipPath2)"/>
      <path fill="none" d="M180.2 153.9 L228.44 153.9" clip-path="url(#clipPath2)"/>
      <path d="M236.44 153.9 L224.44 148.9 L227.44 153.9 L224.44 158.9 Z" clip-path="url(#clipPath2)" stroke="none"/>
      <path fill="none" d="M316.44 154.0502 L441.0001 154.5178" clip-path="url(#clipPath2)"/>
      <path d="M449 154.5478 L437.0189 149.5028 L440.0001 154.514 L436.9813 159.5027 Z" clip-path="url(#clipPath2)" stroke="none"/>
      <text x="333.8118" xml:space="preserve" y="188.4535" clip-path="url(#clipPath2)" stroke="none">add calculations</text>
      <path fill="none" d="M565.08 153.9 L658.6 153.9" clip-path="url(#clipPath2)"/>
      <path d="M666.6 153.9 L654.6 148.9 L657.6 153.9 L654.6 158.9 Z" clip-path="url(#clipPath2)" stroke="none"/>
      <text x="548.0812" xml:space="preserve" y="188.0543" clip-path="url(#clipPath2)" stroke="none">generate for download</text>
    </g>
  </g>
</svg>
